<svg width="30" height="26" viewBox="0 0 30 26" fill="none" xmlns="http://www.w3.org/2000/svg">
<g clip-path="url(#clip0_1_3)">
<path d="M0 13C0 5.81953 6.71371 0 15 0C23.2863 0 30 5.81953 30 13C30 20.1805 23.2863 26 15 26C6.71371 26 0 20.1805 0 13Z" fill="#003974"/>
<path d="M13.0115 4.14804L16.9771 3L17 21.8218L13 23L13.0115 4.14804Z" fill="#EC1C24"/>
<path d="M15.1876 15.4024C13.7065 17.1623 12.2747 18.9611 9.58887 18.9611C5.79713 18.9611 4 15.3538 4 12.3298C4 9.30591 5.40215 6 9.10503 6C10.7047 6 12.2549 6.9626 13.1732 7.98355V10.4435C12.4031 9.93792 10.6849 9.43231 9.55925 9.41286C7.21903 9.37397 5.14542 10.3755 5.18492 12.6507C5.21454 14.2162 6.78456 15.2857 8.35458 15.2857C10.7639 15.2857 12.2154 13.1271 13.43 11.4839C13.7657 11.0561 14.7235 9.79207 14.8815 9.58788C16.2343 7.73074 17.7944 6.02917 20.4803 6.02917C23.64 6.02917 25.4174 8.53777 25.921 11.1242H24.4991C23.9264 10.288 22.8205 9.77263 21.7343 9.77263C19.246 9.77263 17.7648 12.0284 16.5206 13.6814C16.5206 13.6814 15.553 14.9746 15.2074 15.3927L15.1876 15.4024ZM26 13.7689C25.684 16.365 24.2029 18.9903 20.9641 19C19.0781 19 17.6068 17.7263 16.5799 16.1705V14.3717C17.8537 14.994 19.0485 15.6649 20.5 15.6844C22.2873 15.7135 23.8968 15.0329 24.5682 13.7689H26Z" fill="white"/>
</g>
<defs>
<clipPath id="clip0_1_3">
<rect width="30" height="26" fill="white"/>
</clipPath>
</defs>
</svg>
